# xmcd
#
# Track frame offsets: 
#        150
#        22855
#        40789
#        59787
#        82733
#        97964
#        117048
#        137031
#        150511
#        166767
#        179321
#        200414
#
# Disc length: 3093 seconds
#
# Revision: 0
# Processed by: cddbd v1.5.2PL0 Copyright (c) Steve Scherf et al.
# Submitted via: ExactAudioCopyFreeDBPlugin 1.0
#
DISCID=890c130c
DTITLE=Thomas Schoeffler Jr - Jesus shot me down
DYEAR=1900
DGENRE=Blues
TTITLE0=Jesus shot me down
TTITLE1=some days
TTITLE2=At the mill
TTITLE3=Atomic number 79
TTITLE4=Spit and sawdust
TTITLE5=My rope
TTITLE6=Mark my words
TTITLE7=Sick and die
TTITLE8=I did run
TTITLE9=Lonesome whistle
TTITLE10=I dug a hole
TTITLE11=Home
EXTD=
EXTT0=
EXTT1=
EXTT2=
EXTT3=
EXTT4=
EXTT5=
EXTT6=
EXTT7=
EXTT8=
EXTT9=
EXTT10=
EXTT11=
PLAYORDER=
